Coordinates
version=1
nRows=19
nColumns=24
inDegrees=yes

Units are S.I. units (second, meters, Newtons, ...)
Angles are in degrees.

endheader
time	pelvis_tilt	pelvis_list	pelvis_rotation	pelvis_tx	pelvis_ty	pelvis_tz	hip_flexion_r	hip_adduction_r	hip_rotation_r	knee_angle_r	ankle_angle_r	subtalar_angle_r	mtp_angle_r	hip_flexion_l	hip_adduction_l	hip_rotation_l	knee_angle_l	ankle_angle_l	subtalar_angle_l	mtp_angle_l	lumbar_extension	lumbar_bending	lumbar_rotation
      1.07483333	      2.25781134	     -1.04050815	      1.30611221	      0.55523944	      1.02082682	      0.32472542	      5.93862619	      5.87601580	      6.31616211	    -15.11214024	      5.41576585	    -17.34583067	      8.12602075	     13.03729424	     -1.91967443	     -3.51116091	    -70.11302310	      4.84591630	     -5.09613516	      5.36753341	     -2.44963483	      2.12339274	      3.12853701
      1.07900000	      2.25783787	     -0.95761761	      1.01454745	      0.55986278	      1.02139619	      0.32512626	      5.50833978	      5.78840069	      6.51250588	    -14.81928089	      5.49775925	    -17.19776158	      8.24540922	     13.58744944	     -1.84063946	     -3.76990619	    -69.89094589	      5.00101821	     -5.31088257	      5.30878876	     -2.49179454	      2.03165077	      3.34180277
      1.08316667	      2.26395135	     -0.87532740	      0.72957817	      0.56447410	      1.02194791	      0.32550808	      5.07298346	      5.69593082	      6.69651278	    -14.52620323	      5.58096248	    -17.04828084	      8.37755635	     14.12286165	     -1.76587376	     -4.02206677	    -69.63511742	      5.14669194	     -5.54125059	      5.23593586	     -2.53777896	      1.93621189	      3.55746133
      1.08733333	      2.25176349	     -0.78966292	      0.45187510	      0.56905207	      1.02244360	      0.32587342	      4.66597960	      5.59682886	      6.88680350	    -14.24731938	      5.67078383	    -16.89731271	      8.48905957	     14.67454507	     -1.68837225	     -4.26142555	    -69.35076827	      5.28162565	     -5.77271796	      5.16813873	     -2.57066183	      1.84213580	      3.73042218
      1.09150000	      2.26519146	     -0.71981248	      0.17858379	      0.57361664	      1.02293014	      0.32623049	      4.23048890	      5.51116097	      7.07178602	    -13.96243837	      5.75794744	    -16.74758424	      8.60354430	     15.19159835	     -1.63734845	     -4.49881053	    -69.04211226	      5.41946047	     -5.99946287	      5.09189723	     -2.63131161	      1.76340864	      3.92429899
      1.09566667	      2.25577985	     -0.64441480	     -0.09257651	      0.57818024	      1.02336714	      0.32657377	      3.82622341	      5.41408663	      7.24607628	    -13.68844651	      5.82094658	    -16.59895715	      8.64812708	     15.72287480	     -1.58581238	     -4.73339037	    -68.69876822	      5.57915197	     -6.18537275	      5.06092917	     -2.65709324	      1.69209300	      3.99638217
      1.09983333	      2.24640784	     -0.57854202	     -0.35718725	      0.58270407	      1.02374862	      0.32692155	      3.43124675	      5.32775834	      7.42768253	    -13.43128401	      5.92395554	    -16.45157914	      8.71953334	     16.25368035	     -1.55062323	     -4.96096906	    -68.33735930	      5.68067172	     -6.43035118	      5.00511344	     -2.70335746	      1.59454064	      4.19192475
      1.10400000	      2.27321539	     -0.50286672	     -0.60801097	      0.58722351	      1.02417449	      0.32721298	      2.99092078	      5.22160799	      7.58531928	    -13.16018812	      6.04521279	    -16.29552284	      8.82364586	     16.73042105	     -1.49204726	     -5.15586465	    -67.92842055	      5.77560120	     -6.63596930	      4.91813047	     -2.78051966	      1.51699233	      4.43914330
      1.10816667	      2.26564877	     -0.44893952	     -0.86335112	      0.59173180	      1.02450103	      0.32753053	      2.59706128	      5.13983365	      7.75412312	    -12.90369601	      6.13276854	    -16.14489663	      8.90568001	     17.24113946	     -1.47877875	     -5.36832373	    -67.51002380	      5.89679833	     -6.80398394	      4.84609594	     -2.82178107	      1.44039386	      4.57698550
      1.11233333	      2.24354177	     -0.40737119	     -1.07577321	      0.59625661	      1.02477406	      0.32776419	      2.20476820	      5.06474591	      7.88738026	    -12.62039253	      6.21903582	    -16.01055893	      8.92687823	     17.76543136	     -1.46061992	     -5.51165067	    -67.07024838	      6.03347587	     -6.89696789	      4.82887131	     -2.82871578	      1.40524372	      4.61275694
      1.11650000	      2.25697068	     -0.33475616	     -1.34825241	      0.60072365	      1.02507267	      0.32807130	      1.81050645	      4.95583238	      8.06431481	    -12.40571236	      6.34954920	    -15.84362976	      9.02023747	     18.22464541	     -1.43239034	     -5.73197805	    -66.57262071	      6.09072678	     -7.08997033	      4.73554365	     -2.90554414	      1.31998819	      4.90070641
      1.12066667	      2.23299590	     -0.28133108	     -1.59317584	      0.60520187	      1.02527326	      0.32833686	      1.45182284	      4.86391111	      8.21285292	    -12.18089829	      6.46659858	    -15.66994595	      9.12874410	     18.72421446	     -1.42392208	     -5.91448402	    -66.06595536	      6.19152631	     -7.17353661	      4.62367682	     -2.92872430	      1.25941939	      5.08530064
      1.12483333	      2.21413324	     -0.26111326	     -1.79781500	      0.60969111	      1.02544732	      0.32853153	      1.06820486	      4.80354548	      8.33929076	    -11.91580986	      6.54231711	    -15.53341892	      9.14660136	     19.21785699	     -1.44000619	     -6.03912174	    -65.54952389	      6.30712287	     -7.21401260	      4.60738646	     -2.94481947	      1.24437649	      5.10047272
      1.12900000	      2.24050550	     -0.20658678	     -2.05748681	      0.61413822	      1.02566115	      0.32880685	      0.66427416	      4.70404646	      8.50432861	    -11.70511945	      6.67325918	    -15.36197522	      9.22975005	     19.63346825	     -1.44443729	     -6.23735349	    -64.97371884	      6.37969832	     -7.25226341	      4.51524518	     -3.04200458	      1.17090650	      5.33765954
      1.13316667	      2.22134456	     -0.17336830	     -2.28715026	      0.61859599	      1.02578372	      0.32903482	      0.30001429	      4.62597662	      8.65209334	    -11.47191670	      6.74691026	    -15.20928046	      9.25924596	     20.09806664	     -1.46664416	     -6.39167193	    -64.38746211	      6.46709029	     -7.24770047	      4.48407571	     -3.07354261	      1.12482342	      5.38673641
      1.13733333	      2.22341546	     -0.14193047	     -2.52381120	      0.62305291	      1.02590145	      0.32924597	     -0.07594628	      4.54480167	      8.79101313	    -11.26597369	      6.89218348	    -15.04043985	      9.33443811	     20.52155325	     -1.49067049	     -6.54198788	    -63.76512606	      6.54581559	     -7.18691215	      4.39814090	     -3.12891721	      1.09783129	      5.61408301
      1.14150000	      2.20261906	     -0.11818656	     -2.74548458	      0.62749774	      1.02594665	      0.32944451	     -0.43325305	      4.47183417	      8.93128708	    -11.04089751	      6.97269480	    -14.89005901	      9.35796381	     20.96729450	     -1.52453967	     -6.67491761	    -63.12728313	      6.61393677	     -7.13108001	      4.37350391	     -3.16043946	      1.05728510	      5.65347178
      1.14566667	      2.19676858	     -0.08401057	     -2.99242827	      0.63194543	      1.02600083	      0.32964985	     -0.78573912	      4.38269837	      9.07922384	    -10.86147471	      7.09281650	    -14.72626012	      9.39382777	     21.37031776	     -1.55583788	     -6.82909511	    -62.44061153	      6.67859761	     -6.99409331	      4.33535104	     -3.20688790	      1.03133077	      5.78630980
      1.14983333	      2.20976987	     -0.07116156	     -3.21363369	      0.63638263	      1.02603383	      0.32982630	     -1.17051434	      4.31278634	      9.20194012	    -10.65637923	      7.23561668	    -14.53380513	      9.45295133	     21.75062010	     -1.60445527	     -6.94853103	    -61.74459403	      6.75637998	     -6.83214465	      4.26993495	     -3.28632500	      1.01274267	      5.99688441
